<svg viewBox="0 0 56.6 64.5" xmlns="http://www.w3.org/2000/svg"><style>.prefix__st0{fill:#4e4d4f}.prefix__st4{fill:#f1f2f3}</style><path class="prefix__st0" d="M0 0h56.6l-5.1 57.8-23 6.7-23.8-6.7"/><path class="prefix__st0" d="M28.5 5.6v53.3l19-5.5 4.2-47.8"/><path class="prefix__st0" d="M37 33.2h-8.5v10.9l7.5-1.4M10.1 12.3l1 7h17l-16.7 7.3.9 6.6h16.2V12.3M20.2 42.4l-.6-5.4h-7l1 11.1 14.9 4.1v-8.1"/><path class="prefix__st0" d="M44.6 26H29.3l16.6-6.8v-6.9H28.5v20.9H37l-1 9.5-7.5 1.4v8.1l14.2-4.5"/><path fill-rule="evenodd" clip-rule="evenodd" fill="#0071b5" d="M0 0h56.6l-5.1 57.8-23 6.7-23.8-6.7"/><path fill-rule="evenodd" clip-rule="evenodd" fill="#0082c4" d="M28.5 5.6v53.3l19-5.5 4.2-47.8"/><path fill="#2f83bb" d="M37 33.2h-8.5v10.9l7.5-1.4"/><path class="prefix__st4" d="M10.1 12.3l1 7h17l-16.7 7.3.9 6.6h16.2V12.3M20.2 42.4l-.6-5.4h-7l1 11.1 14.9 4.1v-8.1"/><path fill="#fff" d="M44.6 26H29.3l16.6-6.8v-6.9H28.5v20.9H37l-1 9.5-7.5 1.4v8.1l14.2-4.5"/></svg>