<?xml version="1.0" encoding="UTF-8"?>
<!DOCTYPE svg  PUBLIC '-//W3C//DTD SVG 1.1//EN'  'http://www.w3.org/Graphics/SVG/1.1/DTD/svg11.dtd'>
<svg clip-rule="evenodd" fill-rule="evenodd" image-rendering="optimizeQuality" shape-rendering="geometricPrecision" text-rendering="geometricPrecision" viewBox="0 0 2048 2048" xml:space="preserve" xmlns="http://www.w3.org/2000/svg"><defs><style type="text/css">
   <![CDATA[
    .fil4 {fill:none}
    .fil0 {fill:#1572B6}
    .fil1 {fill:#35A8DB}
    .fil2 {fill:#E9E9E8}
    .fil3 {fill:#FFFFFE}
   ]]>
  </style></defs><polygon class="fil0" points="1582.5 1627.1 1703.3 273.75 1704.9 256 1687.1 256 360.92 256 343.12 256 344.7 273.75 465.39 1627.4 466.39 1638.6 477.27 1641.6 1018.8 1792 1027.5 1792 1570.6 1641.4 1581.5 1638.4"/><polygon class="fil1" points="1599.9 352 1024 352 1024 1693.4 1491.8 1563.7"/><polygon class="fil2" points="1023.4 712.36 617.15 881.54 630.62 1049 1023.4 881.11 1441.1 702.5 1458.4 531.15"/><polygon class="fil2" points="1023.4 531.16 1026.4 531.16 1029.8 531.16 1033.2 531.16 1036.6 531.16 1040.1 531.16 1043.5 531.16 1046.9 531.16 1050.4 531.16 1053.8 531.16 1057.2 531.16 1060.7 531.16 1064.1 531.16 1067.5 531.16 1071 531.16 1074.4 531.16 1077.8 531.16 1081.2 531.16 1084.7 531.16 1088.1 531.16 1091.5 531.16 1095 531.16 1098.4 531.16 1101.8 531.16 1105.2 531.16 1108.7 531.16 1112.1 531.16 1115.5 531.16 1119 531.16 1122.4 531.16 1125.8 531.16 1129.2 531.16 1132.7 531.16 1136.1 531.16 1139.5 531.16 1143 531.16 1146.4 531.16 1149.8 531.16 1153.2 531.16 1156.7 531.16 1160.1 531.16 1163.5 531.16 1167 531.16 1170.4 531.16 1173.8 531.16 1177.2 531.16 1180.7 531.16 1184.1 531.16 1187.5 531.16 1191 531.16 1194.4 531.16 1197.8 531.16 1201.3 531.16 1204.7 531.16 1208.1 531.16 1211.6 531.16 1215 531.16 1218.4 531.16 1221.8 531.16 1225.3 531.16 1228.7 531.16 1232.1 531.16 1235.6 531.16 1239 531.16 1242.4 531.16 1245.8 531.16 1249.3 531.16 1252.7 531.16 1256.1 531.16 1259.6 531.16 1263 531.16 1266.4 531.16 1269.8 531.16 1273.3 531.16 1276.7 531.16 1280.1 531.16 1283.6 531.16 1287 531.16 1290.4 531.16 1293.8 531.16 1297.3 531.16 1300.7 531.16 1304.1 531.16 1307.6 531.16 1311 531.16 1314.4 531.16 1317.8 531.16 1321.3 531.16 1324.7 531.16 1328.1 531.16 1331.6 531.16 1335 531.16 1338.4 531.16 1341.9 531.16 1345.3 531.16 1348.7 531.16 1352.1 531.16 1355.6 531.16 1359 531.16 1362.4 531.16 1365.9 531.16 1369.3 531.16 1372.7 531.16 1376.2 531.16 1379.6 531.16 1383 531.16 1386.4 531.16 1389.9 531.16 1393.3 531.16 1396.7 531.16 1400.2 531.16 1403.6 531.16 1407 531.16 1410.4 531.16 1413.9 531.16 1417.3 531.16 1420.7 531.16 1424.2 531.16 1427.6 531.16 1431 531.16 1434.4 531.16 1437.9 531.16 1441.3 531.16 1444.7 531.16 1448.2 531.16 1451.6 531.16 1455 531.16 1458.4 531.16 1455 565.08 1451.6 598.99 1448.2 632.9 1444.7 666.82 1441.3 700.73 1441.1 702.5 1441.1 702.5 1437.9 702.5 1434.4 702.5 1431 702.5 1427.6 702.5 1424.2 702.5 1420.7 702.5 1417.3 702.5 1413.9 702.5 1410.4 702.5 1407 702.5 1403.6 702.5 1400.2 702.5 1396.7 702.5 1393.3 702.5 1389.9 702.5 1386.4 702.5 1383 702.5 1379.6 702.5 1376.2 702.5 1372.7 702.5 1369.3 702.5 1365.9 702.5 1362.4 702.5 1359 702.5 1355.6 702.5 1352.1 702.5 1348.7 702.5 1345.3 702.5 1341.9 702.5 1338.4 702.5 1335 702.5 1331.6 702.5 1328.1 702.5 1324.7 702.5 1321.3 702.5 1317.8 702.5 1314.4 702.5 1311 702.5 1307.6 702.5 1304.1 702.5 1300.7 702.5 1297.3 702.5 1293.8 702.5 1290.4 702.5 1287 702.5 1283.6 702.5 1280.1 702.5 1276.7 702.5 1273.3 702.5 1269.8 702.5 1266.4 702.5 1263 702.5 1259.6 702.5 1256.1 702.5 1252.7 702.5 1249.3 702.5 1245.8 702.5 1242.4 702.5 1239 702.5 1235.6 702.5 1232.1 702.5 1228.7 702.5 1225.3 702.5 1221.8 702.5 1218.4 702.5 1215 702.5 1211.6 702.5 1208.1 702.5 1204.7 702.5 1201.3 702.5 1197.8 702.5 1194.4 702.5 1191 702.5 1187.5 702.5 1184.1 702.5 1180.7 702.5 1177.2 702.5 1173.8 702.5 1170.4 702.5 1167 702.5 1163.5 702.5 1160.1 702.5 1156.7 702.5 1153.2 702.5 1149.8 702.5 1146.4 702.5 1143 702.5 1139.5 702.5 1136.1 702.5 1132.7 702.5 1129.2 702.5 1125.8 702.5 1122.4 702.5 1119 702.5 1115.5 702.5 1112.1 702.5 1108.7 702.5 1105.2 702.5 1101.8 702.5 1098.4 702.5 1095 702.5 1091.5 702.5 1088.1 702.5 1084.7 702.5 1081.2 702.5 1077.8 702.5 1074.4 702.5 1071 702.5 1067.5 702.5 1064.1 702.5 1060.7 702.5 1057.2 702.5 1053.8 702.5 1050.4 702.5 1047 702.5 1046.9 702.5 1043.5 702.5 1040.1 702.5 1036.6 702.5 1033.2 702.5 1029.8 702.5 1026.4 702.5 1023.9 702.5 1023.4 702.5 1022.9 702.5 1019.5 702.5 1016.1 702.5 1012.6 702.5 1009.2 702.5 1005.8 702.5 1002.4 702.5 998.93 702.5 995.5 702.5 992.08 702.5 988.65 702.5 985.22 702.5 981.79 702.5 978.36 702.5 974.93 702.5 971.5 702.5 968.07 702.5 964.64 702.5 961.21 702.5 957.78 702.5 954.35 702.5 950.92 702.5 947.5 702.5 944.06 702.5 940.64 702.5 937.21 702.5 933.78 702.5 930.35 702.5 926.92 702.5 923.49 702.5 920.06 702.5 916.63 702.5 913.2 702.5 909.77 702.5 906.34 702.5 902.91 702.5 899.49 702.5 896.06 702.5 892.63 702.5 889.2 702.5 885.77 702.5 882.34 702.5 878.91 702.5 875.48 702.5 872.05 702.5 868.62 702.5 865.19 702.5 861.76 702.5 858.34 702.5 854.91 702.5 851.48 702.5 848.05 702.5 844.62 702.5 841.19 702.5 837.76 702.5 834.33 702.5 830.9 702.5 827.47 702.5 824.04 702.5 820.61 702.5 817.18 702.5 813.75 702.5 810.32 702.5 806.9 702.5 803.47 702.5 800.04 702.5 796.61 702.5 793.18 702.5 789.75 702.5 786.32 702.5 782.89 702.5 779.46 702.5 776.03 702.5 772.6 702.5 769.18 702.5 765.75 702.5 762.32 702.5 758.89 702.5 755.46 702.5 752.03 702.5 748.6 702.5 745.17 702.5 741.74 702.5 738.31 702.5 734.88 702.5 731.45 702.5 728.02 702.5 724.6 702.5 721.16 702.5 717.74 702.5 714.31 702.5 710.88 702.5 707.45 702.5 704.02 702.5 700.59 702.5 697.16 702.5 693.73 702.5 690.3 702.5 686.87 702.5 683.44 702.5 680.01 702.5 676.59 702.5 673.16 702.5 669.73 702.5 666.3 702.5 662.87 702.5 659.44 702.5 656.01 702.5 652.58 702.5 649.15 702.5 645.72 702.5 642.29 702.5 638.86 702.5 635.44 702.5 632.01 702.5 628.58 702.5 625.15 702.5 621.72 702.5 618.29 702.5 614.86 702.5 611.43 702.5 608 702.5 604.57 702.5 601.74 702.5 601.14 697.65 597.71 669.9 594.28 642.15 590.85 614.4 587.42 586.65 584 558.91 580.57 531.16 584 531.16 587.42 531.16 590.85 531.16 594.28 531.16 597.71 531.16 601.14 531.16 604.57 531.16 608 531.16 611.43 531.16 614.86 531.16 618.29 531.16 621.72 531.16 625.15 531.16 628.58 531.16 632.01 531.16 635.44 531.16 638.86 531.16 642.29 531.16 645.72 531.16 649.15 531.16 652.58 531.16 656.01 531.16 659.44 531.16 662.87 531.16 666.3 531.16 669.73 531.16 673.16 531.16 676.59 531.16 680.01 531.16 683.44 531.16 686.87 531.16 690.3 531.16 693.73 531.16 697.16 531.16 700.59 531.16 704.02 531.16 707.45 531.16 710.88 531.16 714.31 531.16 717.74 531.16 721.16 531.16 724.6 531.16 728.02 531.16 731.45 531.16 734.88 531.16 738.31 531.16 741.74 531.16 745.17 531.16 748.6 531.16 752.03 531.16 755.46 531.16 758.89 531.16 762.32 531.16 765.75 531.16 769.18 531.16 772.6 531.16 776.03 531.16 779.46 531.16 782.89 531.16 786.32 531.16 789.75 531.16 793.18 531.16 796.61 531.16 800.04 531.16 803.47 531.16 806.9 531.16 810.32 531.16 813.75 531.16 817.18 531.16 820.61 531.16 824.04 531.16 827.47 531.16 830.9 531.16 834.33 531.16 837.76 531.16 841.19 531.16 844.62 531.16 848.05 531.16 851.48 531.16 854.91 531.16 858.34 531.16 861.76 531.16 865.19 531.16 868.62 531.16 872.05 531.16 875.48 531.16 878.91 531.16 882.34 531.16 885.77 531.16 889.2 531.16 892.63 531.16 896.06 531.16 899.49 531.16 902.91 531.16 906.34 531.16 909.77 531.16 913.2 531.16 916.63 531.16 920.06 531.16 923.49 531.16 926.92 531.16 930.35 531.16 933.78 531.16 937.21 531.16 940.64 531.16 944.06 531.16 947.5 531.16 950.92 531.16 954.35 531.16 957.78 531.16 961.21 531.16 964.64 531.16 968.07 531.16 971.5 531.16 974.93 531.16 978.36 531.16 981.79 531.16 985.22 531.16 988.65 531.16 992.08 531.16 995.5 531.16 998.93 531.16 1002.4 531.16 1005.8 531.16 1009.2 531.16 1012.6 531.16 1016.1 531.16 1019.5 531.16 1022.9 531.16"/><polygon class="fil2" points="617.77 881.56 1426.4 881.56 1411.6 1051 631.25 1049"/><polygon class="fil2" points="643.04 1143.4 819.92 1143.5 831.46 1282 1023.4 1329.6 1220.4 1274.3 1233.7 1047.8 1412.2 1045 1380.2 1412.9 1024 1516.8 665.28 1411"/><polygon class="fil3" points="1024 880.83 1441.1 702.5 1458.4 531.15 1024 712.09"/><polygon class="fil3" points="1024 531.16 1026.4 531.16 1029.8 531.16 1033.2 531.16 1036.6 531.16 1040.1 531.16 1043.5 531.16 1046.9 531.16 1050.4 531.16 1053.8 531.16 1057.2 531.16 1060.7 531.16 1064.1 531.16 1067.5 531.16 1071 531.16 1074.4 531.16 1077.8 531.16 1081.2 531.16 1084.7 531.16 1088.1 531.16 1091.5 531.16 1095 531.16 1098.4 531.16 1101.8 531.16 1105.2 531.16 1108.7 531.16 1112.1 531.16 1115.5 531.16 1119 531.16 1122.4 531.16 1125.8 531.16 1129.2 531.16 1132.7 531.16 1136.1 531.16 1139.5 531.16 1143 531.16 1146.4 531.16 1149.8 531.16 1153.2 531.16 1156.7 531.16 1160.1 531.16 1163.5 531.16 1167 531.16 1170.4 531.16 1173.8 531.16 1177.2 531.16 1180.7 531.16 1184.1 531.16 1187.5 531.16 1191 531.16 1194.4 531.16 1197.8 531.16 1201.3 531.16 1204.7 531.16 1208.1 531.16 1211.6 531.16 1215 531.16 1218.4 531.16 1221.8 531.16 1225.3 531.16 1228.7 531.16 1232.1 531.16 1235.6 531.16 1239 531.16 1242.4 531.16 1245.8 531.16 1249.3 531.16 1252.7 531.16 1256.1 531.16 1259.6 531.16 1263 531.16 1266.4 531.16 1269.8 531.16 1273.3 531.16 1276.7 531.16 1280.1 531.16 1283.6 531.16 1287 531.16 1290.4 531.16 1293.8 531.16 1297.3 531.16 1300.7 531.16 1304.1 531.16 1307.6 531.16 1311 531.16 1314.4 531.16 1317.8 531.16 1321.3 531.16 1324.7 531.16 1328.1 531.16 1331.6 531.16 1335 531.16 1338.4 531.16 1341.9 531.16 1345.3 531.16 1348.7 531.16 1352.1 531.16 1355.6 531.16 1359 531.16 1362.4 531.16 1365.9 531.16 1369.3 531.16 1372.7 531.16 1376.2 531.16 1379.6 531.16 1383 531.16 1386.4 531.16 1389.9 531.16 1393.3 531.16 1396.7 531.16 1400.2 531.16 1403.6 531.16 1407 531.16 1410.4 531.16 1413.9 531.16 1417.3 531.16 1420.7 531.16 1424.2 531.16 1427.6 531.16 1431 531.16 1434.4 531.16 1437.9 531.16 1441.3 531.16 1444.7 531.16 1448.2 531.16 1451.6 531.16 1455 531.16 1458.4 531.16 1455 565.08 1451.6 598.99 1448.2 632.9 1444.7 666.82 1441.3 700.73 1441.1 702.5 1441.1 702.5 1437.9 702.5 1434.4 702.5 1431 702.5 1427.6 702.5 1424.2 702.5 1420.7 702.5 1417.3 702.5 1413.9 702.5 1410.4 702.5 1407 702.5 1403.6 702.5 1400.2 702.5 1396.7 702.5 1393.3 702.5 1389.9 702.5 1386.4 702.5 1383 702.5 1379.6 702.5 1376.2 702.5 1372.7 702.5 1369.3 702.5 1365.9 702.5 1362.4 702.5 1359 702.5 1355.6 702.5 1352.1 702.5 1348.7 702.5 1345.3 702.5 1341.9 702.5 1338.4 702.5 1335 702.5 1331.6 702.5 1328.1 702.5 1324.7 702.5 1321.3 702.5 1317.8 702.5 1314.4 702.5 1311 702.5 1307.6 702.5 1304.1 702.5 1300.7 702.5 1297.3 702.5 1293.8 702.5 1290.4 702.5 1287 702.5 1283.6 702.5 1280.1 702.5 1276.7 702.5 1273.3 702.5 1269.8 702.5 1266.4 702.5 1263 702.5 1259.6 702.5 1256.1 702.5 1252.7 702.5 1249.3 702.5 1245.8 702.5 1242.4 702.5 1239 702.5 1235.6 702.5 1232.1 702.5 1228.7 702.5 1225.3 702.5 1221.8 702.5 1218.4 702.5 1215 702.5 1211.6 702.5 1208.1 702.5 1204.7 702.5 1201.3 702.5 1197.8 702.5 1194.4 702.5 1191 702.5 1187.5 702.5 1184.1 702.5 1180.7 702.5 1177.2 702.5 1173.8 702.5 1170.4 702.5 1167 702.5 1163.5 702.5 1160.1 702.5 1156.7 702.5 1153.2 702.5 1149.8 702.5 1146.4 702.5 1143 702.5 1139.5 702.5 1136.1 702.5 1132.7 702.5 1129.2 702.5 1125.8 702.5 1122.4 702.5 1119 702.5 1115.5 702.5 1112.1 702.5 1108.7 702.5 1105.2 702.5 1101.8 702.5 1098.4 702.5 1095 702.5 1091.5 702.5 1088.1 702.5 1084.7 702.5 1081.2 702.5 1077.8 702.5 1074.4 702.5 1071 702.5 1067.5 702.5 1064.1 702.5 1060.7 702.5 1057.2 702.5 1053.8 702.5 1050.4 702.5 1047 702.5 1046.9 702.5 1043.5 702.5 1040.1 702.5 1036.6 702.5 1033.2 702.5 1029.8 702.5 1026.4 702.5 1024 702.5"/><polygon class="fil3" points="1024 881.56 1426.4 881.56 1411.6 1051 1024 1050"/><polygon class="fil3" points="1024 1329.4 1220.4 1274.3 1233.7 1047.8 1412.2 1045 1380.2 1412.9 1024 1516.8 1024 1516.8"/><rect class="fil4" width="2048" height="2048"/></svg>
