<?xml version="1.0" ?><!DOCTYPE svg  PUBLIC '-//W3C//DTD SVG 1.1//EN'  'http://www.w3.org/Graphics/SVG/1.1/DTD/svg11.dtd'><svg height="176.389mm" style="shape-rendering:geometricPrecision; text-rendering:geometricPrecision; image-rendering:optimizeQuality; fill-rule:evenodd; clip-rule:evenodd" version="1.1" viewBox="0 0 17639 17639" width="176.389mm" xml:space="preserve" xmlns="http://www.w3.org/2000/svg" xmlns:xlink="http://www.w3.org/1999/xlink"><defs><style type="text/css">
   <![CDATA[
    .fil1 {fill:#261300}
    .fil0 {fill:#FF7C00}
    .fil2 {fill:#FF7C00}
   ]]>
  </style></defs><g id="Layer_x0020_1"><rect class="fil0" height="15381" width="15476" x="1082" y="1129"/><rect class="fil1" height="12803" width="12882" x="2379" y="2418"/><g id="_1927324032"><rect class="fil0" height="5131" rx="57" ry="57" width="1336" x="11402" y="7290"/><ellipse class="fil0" cx="12070" cy="5933" rx="710" ry="679"/></g><path class="fil2" d="M8761 10627l501 1659c26,98 77,122 146,121l1283 0c99,1 106,-29 91,-95l-2119 -7068c-4,-13 -14,-22 -34,-22l-1777 -5c-70,0 -71,36 -65,104 22,246 10,384 -42,577l-1876 6418c-20,61 -15,91 65,92l1211 -1c128,-4 135,-39 157,-103l420 -1677 2039 0zm-259 -1290l-1471 0 713 -2884 758 2884z"/></g></svg>